<?xml version="1.0" standalone="no"?>
<!DOCTYPE svg PUBLIC "-//W3C//DTD SVG 1.1//EN" "http://www.w3.org/Graphics/SVG/1.1/DTD/svg11.dtd">
<svg xmlns="http://www.w3.org/2000/svg" xmlns:xlink="http://www.w3.org/1999/xlink" xmlns:xodm="http://www.corel.com/coreldraw/odm/2003" xml:space="preserve" width="10250.1396484375" height="5595.330078125" version="1.1" style="shape-rendering:geometricPrecision; text-rendering:geometricPrecision; image-rendering:optimizeQuality; fill-rule:evenodd; clip-rule:evenodd" viewBox="0 0 10250.14 5595.33">
 <defs>
  <style type="text/css">
   <![CDATA[
    .fil4 {fill:#FEFEFE;fill-rule:nonzero}
    .fil1 {fill:#2B3854;fill-rule:nonzero}
    .fil2 {fill:#656FA4;fill-rule:nonzero}
    .fil0 {fill:#F65C2D;fill-rule:nonzero}
    .fil3 {fill:#F8F7F9;fill-rule:nonzero}
   ]]>
  </style>
 </defs>
 <g id="Camada_x0020_1">
  <metadata id="CorelCorpID_0Corel-Layer"/>
  <g id="_2606134060384">
   <g>
    <path class="fil0" d="M9445.88 4159.38c120.63,0 220.49,-44.01 299.18,-132.24 79.06,-88.03 118.78,-203.83 118.78,-347.21 0,-143.81 -39.72,-259.63 -118.78,-347.25 -78.69,-88.03 -178.55,-132.24 -299.18,-132.24 -120.83,0 -220.3,44.21 -298.45,132.24 -77.76,87.61 -116.55,203.43 -116.55,347.25 0,143.38 38.79,259.18 116.55,347.21 78.14,88.23 177.62,132.24 298.45,132.24zm0 307.47c-142.17,0 -270.04,-33.47 -383.82,-100.59 -113.95,-66.94 -202.67,-160.24 -266.51,-279.89 -63.85,-120.07 -95.77,-255.55 -95.77,-406.43 0,-151.32 31.92,-286.4 95.77,-404.84 63.84,-118.87 152.56,-211.95 266.51,-279.08 113.78,-66.94 241.65,-100.59 383.82,-100.59 143.46,0 272.09,33.66 386.04,100.59 113.78,67.13 202.67,160.22 266.53,279.08 64.21,118.44 96.51,253.52 96.51,404.84 0,150.88 -32.3,286.36 -96.51,406.43 -63.86,119.66 -152.75,212.96 -266.53,279.89 -113.95,67.12 -242.58,100.59 -386.04,100.59zm-854.42 -103.85c-38.62,34.69 -85.76,60.65 -141.06,77.89 -54.93,17.23 -113.21,25.97 -174.46,25.97 -154.05,0 -273.02,-44.01 -357.09,-132.24 -84.28,-88.05 -126.21,-216.21 -126.21,-384.54l0 -1375.94 328.89 0 0 350.47 375.64 0 0 287.2 -375.64 0 0 729.34c0,74.63 17.07,131.82 51.22,171.18 34.16,38.95 81.84,58.42 143.29,58.42 73.12,0 134.37,-21.1 183.37,-63.3l92.06 255.56zm-1852.5 -203.62c120.63,0 220.49,-44.01 299.18,-132.24 79.06,-88.03 118.78,-203.83 118.78,-347.21 0,-143.81 -39.72,-259.63 -118.78,-347.25 -78.69,-88.03 -178.55,-132.24 -299.18,-132.24 -120.83,0 -220.32,44.21 -298.45,132.24 -77.77,87.61 -116.56,203.43 -116.56,347.25 0,143.38 38.79,259.18 116.56,347.21 78.13,88.23 177.62,132.24 298.45,132.24zm0 307.47c-142.18,0 -270.06,-33.47 -383.82,-100.59 -113.96,-66.94 -202.67,-160.24 -266.53,-279.89 -63.84,-120.07 -95.76,-255.55 -95.76,-406.43 0,-151.32 31.92,-286.4 95.76,-404.84 63.86,-118.87 152.57,-211.95 266.53,-279.08 113.76,-66.94 241.65,-100.59 383.82,-100.59 143.46,0 272.08,33.66 386.04,100.59 113.76,67.13 202.67,160.22 266.52,279.08 64.22,118.44 96.5,253.52 96.5,404.84 0,150.88 -32.28,286.36 -96.5,406.43 -63.85,119.66 -152.76,212.96 -266.52,279.89 -113.96,67.12 -242.58,100.59 -386.04,100.59zm-1319.39 -1732.07c-157.94,0 -277.28,38.54 -357.84,115.22 -80.18,76.24 -120.26,189.01 -120.26,338.27l0 172.8 801.05 0 0 315.6 -801.05 0 0 769.91 -341.5 0 0 -1258.31c0,-242.77 71.27,-433.41 213.82,-571.94 142.91,-138.94 339.64,-208.49 590.2,-208.49 104.86,0 202.86,12.57 294,37.31 90.93,24.94 170.73,61.27 239.05,108.71l-107.65 304.22c-108.39,-82.13 -244.99,-123.29 -409.81,-123.29z"/>
    <path class="fil0" d="M9540.4 774.77c-120.82,0 -218.64,43.4 -293.24,129.79 -74.26,86 -111.38,201.8 -111.38,347.23l0 3.26 793.62 -167.12c-22.82,-93.5 -68.84,-168.96 -138.07,-226.36 -69.42,-57.8 -152.93,-86.79 -250.94,-86.79zm60.13 980.01c152.37,0 279.52,-55.56 381.6,-167.12l172.97 221.49c-61.43,82.33 -140.31,144.4 -236.83,186.57 -96.13,42.19 -204.53,63.29 -325.17,63.29 -154.42,0 -290.27,-33.47 -407.58,-100.59 -117.3,-66.94 -207.86,-160.24 -271.71,-279.89 -63.84,-120.07 -95.77,-255.55 -95.77,-406.43 0,-149.29 30.81,-283.56 92.79,-403.22 62.37,-120.06 148.11,-213.57 257.62,-280.7 109.31,-66.94 233.3,-100.59 371.94,-100.59 131.59,0 251.11,31.44 358.57,94.09 107.84,62.28 193.22,151.32 256.13,266.93 63.29,115.8 95.04,251.28 95.04,406.45l-1075 229.6c33.04,88.2 86.49,155.35 160.35,201.17 73.69,46.06 162.03,68.96 265.04,68.96zm-1431.64 -1025.44c94.47,-161.04 260.76,-241.76 498.9,-241.76l0 342.36c-28.22,-5.89 -53.84,-8.92 -76.48,-8.92 -127.7,0 -227.55,40.96 -299.18,122.5 -71.83,81.13 -107.64,198.36 -107.64,351.27l0 743.96 -328.89 0 0 -1533.33 313.28 0 0 223.92zm-1485.11 1022.2c120.64,0 220.49,-44.01 299.18,-132.24 79.08,-88.03 118.79,-203.83 118.79,-347.21 0,-143.81 -39.71,-259.63 -118.79,-347.25 -78.69,-88.03 -178.53,-132.24 -299.18,-132.24 -120.84,0 -220.31,44.21 -298.44,132.24 -77.77,87.61 -116.56,203.43 -116.56,347.25 0,143.38 38.79,259.18 116.56,347.21 78.13,88.23 177.6,132.24 298.44,132.24zm740.91 -1246.13l0 1533.33 -312.55 0 0 -197.97c-54.57,72.62 -121.58,127.17 -201.19,163.88 -79.81,36.09 -167.79,54.35 -264.3,54.35 -136.6,0 -258.91,-32.45 -366.74,-97.36 -107.45,-65.3 -191.35,-157.38 -251.67,-275.84 -60.5,-118.84 -90.58,-256.77 -90.58,-413.73 0,-156.79 30.07,-294.1 90.58,-412.15 60.32,-117.84 144.22,-209.31 251.67,-274.21 107.84,-65.32 230.15,-98.15 366.74,-98.15 90.95,0 174.66,17.44 250.94,51.91 76.08,34.69 142.54,85.6 198.96,152.52l0 -186.59 328.14 0zm-2060.29 -178.47c-157.95,0 -277.28,38.54 -357.84,115.22 -80.18,76.24 -120.28,189.01 -120.28,338.27l0 172.8 801.06 0 0 315.6 -801.06 0 0 769.91 -341.49 0 0 -1258.31c0,-242.77 71.26,-433.41 213.81,-571.94 142.9,-138.94 339.65,-208.49 590.2,-208.49 104.86,0 202.87,12.57 293.99,37.31 90.95,24.94 170.75,61.27 239.05,108.71l-107.64 304.22c-108.39,-82.13 -244.98,-123.29 -409.8,-123.29z"/>
   </g>
   <g>
    <g>
     <circle class="fil1" cx="2067.95" cy="2233.42" r="2067.95"/>
    </g>
    <path class="fil2" d="M3230.61 1837.8c-103.84,1.28 -193.03,3.82 -282.86,3.82 -159.27,0.64 -319.18,0.64 -478.45,0 -27.39,0 -57.34,5.73 -57.34,-42.04 0,-251.65 -2.55,-502.65 -4.45,-768.95 277.76,272.03 545.34,534.5 823.1,807.17z"/>
    <g>
     <path class="fil2" d="M2435.54 2935.48c171.37,1.27 342.11,-0.64 540.24,-1.28 -537.06,-496.91 -1054.36,-976.64 -1590.78,-1473.56 5.09,257.38 10.83,507.12 15.29,753.03 259.29,240.17 516.67,478.45 775.96,719.26 86.64,0.63 173.28,1.91 259.29,2.55z"/>
     <path class="fil3" d="M1520.7 2924.65c-52.87,-0.63 -108.94,8.92 -110.21,-77.09 -2.55,-210.23 -6.37,-421.1 -10.19,-633.89 -127.42,-118.49 -256.11,-236.99 -384.8,-356.76 9.56,480.35 20.39,933.95 26.12,1386.91 1.27,86.01 57.33,76.45 110.21,77.09 305.16,4.46 609.68,8.29 914.84,10.2 171.38,1.27 342.12,-0.64 540.24,-1.28 -144.61,-133.78 -287.32,-266.3 -429.39,-397.53 -219.15,-1.91 -437.67,-4.46 -656.83,-7.65z"/>
    </g>
   </g>
   <path class="fil4" d="M83.39 5159.52l64.03 0 0 319.66 -64.03 0 0 -319.66zm32.56 -52.78c-11.7,0 -21.48,-4.25 -29.28,-12.81 -7.86,-8.48 -11.77,-19.19 -11.77,-31.99 0,-12.81 3.9,-23.44 11.77,-32 7.8,-8.48 17.59,-12.81 29.28,-12.81 11.49,0 21.15,4.08 29.01,12.17 7.81,8.15 11.77,18.4 11.77,30.71 0,13.28 -3.82,24.32 -11.5,33.29 -7.66,8.94 -17.44,13.44 -29.28,13.44zm460.5 49.28c34.49,0 61.72,11.75 81.84,35.19 20.25,23.28 30.38,58.16 30.38,104.64l0 183.34 -64.04 0 0 -173.74c0,-27.92 -5.33,-48.95 -15.87,-63.02 -10.61,-14.08 -25.73,-21.13 -45.44,-21.13 -21.54,0 -38.79,8.32 -51.73,24.96 -13,16.48 -19.43,39.99 -19.43,70.72l0 162.22 -64.04 0 0 -173.74c0,-27.92 -5.32,-48.95 -15.88,-63.02 -10.6,-14.08 -25.85,-21.13 -45.7,-21.13 -21.75,0 -39.07,8.25 -51.99,24.64 -12.8,16.24 -19.16,39.91 -19.16,71.04l0 162.22 -64.05 0 0 -319.66 61.03 0 0 40.65c10.21,-14.24 22.99,-25.13 38.32,-32.64 15.47,-7.68 32.58,-11.52 51.18,-11.52 20.6,0 38.86,4.46 54.73,13.44 15.87,8.95 28.33,22.24 37.5,39.68 11.28,-16.65 25.79,-29.61 43.51,-39.05 17.86,-9.35 37.5,-14.07 58.83,-14.07zm345.64 0c26.6,0 50.43,6.87 71.42,20.46 20.95,13.46 37.38,32.57 49.28,57.29 12.03,24.79 18.06,53.28 18.06,85.43 0,32.48 -6.03,61.11 -18.06,86.08 -11.9,24.95 -28.33,44.32 -49.28,57.91 -20.99,13.44 -44.81,20.17 -71.42,20.17 -36.87,0 -66.1,-14.4 -87.59,-43.21l0 155.19 -64.03 0 0 -435.82 61.03 0 0 41.93c10.54,-15.13 23.6,-26.41 39.13,-33.92 15.46,-7.68 32.64,-11.52 51.46,-11.52zm-7.13 263.34c23.54,0 42.84,-9.12 58.04,-27.53 15.32,-18.31 22.97,-42.56 22.97,-72.63 0,-29.83 -7.66,-53.91 -22.97,-72.31 -15.19,-18.32 -34.49,-27.52 -58.04,-27.52 -15.32,0 -29.21,4.15 -41.6,12.49 -12.25,8.15 -21.89,19.75 -29,34.87 -7.12,15.21 -10.68,32.66 -10.68,52.48 0,20.08 3.56,37.68 10.68,52.8 7.11,15.2 16.75,26.87 29,35.19 12.39,8.16 26.28,12.17 41.6,12.17zm267.75 -213.12c18.41,-33.43 50.91,-50.23 97.44,-50.23l0 71.03c-5.48,-1.04 -10.52,-1.6 -15.06,-1.6 -24.83,0 -44.26,8.56 -58.29,25.61 -14.09,16.88 -21.08,41.18 -21.08,72.93l0 155.19 -64.03 0 0 -319.66 61.03 0 0 46.72zm151.44 -46.72l64.04 0 0 319.66 -64.04 0 0 -319.66zm32.57 -52.78c-11.7,0 -21.48,-4.25 -29.28,-12.81 -7.88,-8.48 -11.78,-19.19 -11.78,-31.99 0,-12.81 3.9,-23.44 11.78,-32 7.79,-8.48 17.57,-12.81 29.28,-12.81 11.5,0 21.14,4.08 29.02,12.17 7.8,8.15 11.76,18.4 11.76,30.71 0,13.28 -3.82,24.32 -11.48,33.29 -7.67,8.94 -17.45,13.44 -29.29,13.44zm460.51 49.28c34.48,0 61.71,11.75 81.84,35.19 20.26,23.28 30.37,58.16 30.37,104.64l0 183.34 -64.04 0 0 -173.74c0,-27.92 -5.32,-48.95 -15.87,-63.02 -10.6,-14.08 -25.73,-21.13 -45.43,-21.13 -21.55,0 -38.8,8.32 -51.73,24.96 -12.99,16.48 -19.43,39.99 -19.43,70.72l0 162.22 -64.04 0 0 -173.74c0,-27.92 -5.33,-48.95 -15.86,-63.02 -10.62,-14.08 -25.87,-21.13 -45.73,-21.13 -21.75,0 -39.05,8.25 -51.99,24.64 -12.8,16.24 -19.16,39.91 -19.16,71.04l0 162.22 -64.04 0 0 -319.66 61.03 0 0 40.65c10.21,-14.24 23,-25.13 38.31,-32.64 15.47,-7.68 32.57,-11.52 51.18,-11.52 20.59,0 38.86,4.46 54.74,13.44 15.88,8.95 28.33,22.24 37.5,39.68 11.29,-16.65 25.79,-29.61 43.51,-39.05 17.85,-9.35 37.5,-14.07 58.84,-14.07zm194 3.51l64.05 0 0 319.66 -64.05 0 0 -319.66zm32.57 -52.78c-11.7,0 -21.47,-4.25 -29.28,-12.81 -7.86,-8.48 -11.77,-19.19 -11.77,-31.99 0,-12.81 3.9,-23.44 11.77,-32 7.81,-8.48 17.59,-12.81 29.28,-12.81 11.5,0 21.16,4.08 29.01,12.17 7.81,8.15 11.78,18.4 11.78,30.71 0,13.28 -3.83,24.32 -11.48,33.29 -7.68,8.94 -17.46,13.44 -29.3,13.44zm270.57 49.28c34.48,0 62.13,11.75 82.93,35.19 20.94,23.52 31.48,58.41 31.48,104.64l0 183.34 -64.04 0 0 -173.74c0,-27.92 -5.68,-48.95 -16.97,-63.02 -11.36,-14.08 -27.38,-21.13 -48.17,-21.13 -23.54,0 -42.14,8.32 -55.84,24.96 -13.68,16.48 -20.52,40.23 -20.52,71.36l0 161.58 -64.04 0 0 -319.66 61.03 0 0 41.29c10.54,-14.72 23.88,-25.77 39.95,-33.28 16.02,-7.68 34.08,-11.52 54.19,-11.52zm466.03 -120.95l0 444.11 -61.58 0 0 -41.25c-10.6,15.18 -23.67,26.55 -39.13,34.23 -15.53,7.43 -32.7,11.21 -51.45,11.21 -26.28,0 -49.94,-6.74 -70.88,-20.17 -21,-13.59 -37.48,-32.96 -49.53,-57.91 -11.9,-24.96 -17.78,-53.6 -17.78,-86.08 0,-32.15 5.88,-60.64 17.78,-85.43 12.05,-24.72 28.54,-43.83 49.53,-57.29 20.94,-13.59 44.61,-20.46 70.88,-20.46 18.08,0 34.56,3.67 49.54,10.88 15.11,7.04 27.98,17.76 38.58,31.99l0 -163.82 64.04 0zm-144.5 384.29c15.46,0 29.35,-4 41.61,-12.17 12.18,-8.32 21.87,-19.99 29.01,-35.19 7.24,-15.12 10.94,-32.72 10.94,-52.8 0,-19.82 -3.7,-37.27 -10.94,-52.48 -7.13,-15.11 -16.83,-26.72 -29.01,-34.87 -12.26,-8.33 -26.15,-12.49 -41.61,-12.49 -15.32,0 -29.21,4.15 -41.6,12.49 -12.25,8.15 -21.89,19.75 -29,34.87 -7.11,15.21 -10.68,32.66 -10.68,52.48 0,20.08 3.57,37.68 10.68,52.8 7.11,15.2 16.75,26.87 29,35.19 12.39,8.16 26.28,12.17 41.6,12.17zm351.18 64c-27.57,0 -52.46,-6.9 -74.7,-20.81 -22.1,-14.07 -39.42,-33.6 -52,-58.55 -12.45,-24.96 -18.63,-53.21 -18.63,-84.8 0,-31.35 6.18,-59.35 18.63,-84.14 12.58,-24.72 29.9,-44.01 52,-57.93 22.24,-14.08 47.13,-21.11 74.7,-21.11 28.07,0 53.17,7.03 75.28,21.11 22.23,13.92 39.54,33.21 51.99,57.93 12.6,24.79 18.88,52.79 18.88,84.14 0,31.59 -6.28,59.84 -18.88,84.8 -12.45,24.95 -29.76,44.48 -51.99,58.55 -22.1,13.91 -47.21,20.81 -75.28,20.81zm0 -64c23.69,0 43.26,-9.12 58.58,-27.53 15.33,-18.31 22.98,-42.56 22.98,-72.63 0,-29.83 -7.66,-53.91 -22.98,-72.31 -15.32,-18.32 -34.88,-27.52 -58.58,-27.52 -23.52,0 -42.9,9.2 -58.02,27.52 -15.18,18.4 -22.71,42.48 -22.71,72.31 0,30.07 7.53,54.33 22.71,72.63 15.12,18.4 34.49,27.53 58.02,27.53zm433.22 64c-22.1,0 -43.71,-3.44 -64.85,-10.25 -21.21,-6.8 -38.18,-15.35 -50.9,-25.6l24.63 -56.94c12.18,9.59 26.9,17.27 44.06,23.03 17.31,5.77 34.36,8.65 51.18,8.65 38.31,0 57.48,-11.68 57.48,-35.21 0,-11.27 -4.93,-19.03 -14.78,-23.35 -9.72,-4.48 -25.32,-8.65 -46.81,-12.49 -22.43,-4 -40.77,-8.63 -55.01,-13.76 -14.22,-5.27 -26.54,-14.39 -36.94,-27.2 -10.4,-12.96 -15.6,-31.11 -15.6,-54.39 0,-30.24 10.82,-54.48 32.57,-72.63 21.7,-18.09 50.97,-27.2 87.85,-27.2 18.75,0 37.56,2.48 56.38,7.35 18.75,4.97 34.08,11.68 45.98,20.17l-24.64 56.62c-23.18,-15.75 -49.25,-23.67 -78.26,-23.67 -18.81,0 -33.13,3.35 -42.97,9.91 -9.72,6.41 -14.51,15.04 -14.51,25.92 0,12.01 5.19,20.48 15.59,25.59 10.55,4.96 26.69,9.53 48.45,13.76 21.89,4.07 39.82,8.8 53.92,14.08 14.02,5.12 26.06,13.91 36.13,26.25 9.98,12.39 15.05,29.91 15.05,52.45 0,30.08 -11.15,54.1 -33.4,72 -22.1,17.92 -52.26,26.89 -90.58,26.89zm309.38 -63.37c29.56,0 54.26,-11.59 74.16,-34.87l33.68 46.06c-11.9,17.3 -27.24,30.33 -45.98,39.06 -18.81,8.79 -39.96,13.12 -63.5,13.12 -30.1,0 -56.58,-6.9 -79.37,-20.81 -22.86,-14.07 -40.5,-33.6 -53.08,-58.55 -12.45,-24.96 -18.61,-53.21 -18.61,-84.8 0,-30.89 6.03,-58.89 18.06,-83.82 12.18,-24.97 29.02,-44.33 50.36,-58.25 21.34,-14.08 45.49,-21.11 72.52,-21.11 25.52,0 48.8,6.56 69.79,19.51 20.94,12.81 37.56,31.35 49.81,55.67 12.37,24.16 18.61,52.33 18.61,84.49l-209.36 47.99c6.37,18.39 16.7,32.31 30.93,41.9 14.37,9.6 31.74,14.4 51.99,14.4zm-11.77 -204.14c-23.54,0 -42.62,8.95 -57.19,26.87 -14.64,17.93 -21.89,42.08 -21.89,72.32l0 0.65 154.9 -34.57c-4.58,-19.59 -13.62,-35.35 -27.09,-47.35 -13.56,-11.92 -29.76,-17.92 -48.73,-17.92zm464.36 -56.33l0 319.66 -61.03 0 0 -40.62c-10.27,14.3 -22.99,25.43 -38.32,33.27 -15.32,7.68 -31.95,11.53 -49.8,11.53 -36.54,0 -65.29,-11.85 -86.24,-35.52 -20.99,-23.84 -31.45,-59.04 -31.45,-105.6l0 -182.71 64.04 0 0 172.49c0,28.64 5.46,50.06 16.42,64.3 11.07,14.08 26.96,21.12 47.61,21.12 22.78,0 40.93,-8.16 54.48,-24.63 13.46,-16.64 20.24,-40.48 20.24,-71.68l0 -161.59 64.04 0zm168.3 323.84c-22.1,0 -43.71,-3.44 -64.86,-10.25 -21.21,-6.8 -38.18,-15.35 -50.9,-25.6l24.63 -56.94c12.17,9.59 26.89,17.27 44.06,23.03 17.31,5.77 34.34,8.65 51.18,8.65 38.31,0 57.46,-11.68 57.46,-35.21 0,-11.27 -4.92,-19.03 -14.77,-23.35 -9.71,-4.48 -25.33,-8.65 -46.81,-12.49 -22.44,-4 -40.78,-8.63 -55,-13.76 -14.23,-5.27 -26.55,-14.39 -36.96,-27.2 -10.38,-12.96 -15.6,-31.11 -15.6,-54.39 0,-30.24 10.81,-54.48 32.57,-72.63 21.71,-18.09 50.97,-27.2 87.86,-27.2 18.75,0 37.56,2.48 56.38,7.35 18.76,4.97 34.07,11.68 45.98,20.17l-24.64 56.62c-23.19,-15.75 -49.25,-23.67 -78.27,-23.67 -18.81,0 -33.1,3.35 -42.97,9.91 -9.72,6.41 -14.51,15.04 -14.51,25.92 0,12.01 5.21,20.48 15.6,25.59 10.53,4.96 26.69,9.53 48.45,13.76 21.88,4.07 39.84,8.8 53.91,14.08 14.03,5.12 26.08,13.91 36.13,26.25 9.99,12.39 15.06,29.91 15.06,52.45 0,30.08 -11.16,54.1 -33.4,72 -22.09,17.92 -52.27,26.89 -90.58,26.89zm665.53 -327.34c34.48,0 61.72,11.75 81.83,35.19 20.26,23.28 30.39,58.16 30.39,104.64l0 183.34 -64.04 0 0 -173.74c0,-27.92 -5.33,-48.95 -15.88,-63.02 -10.6,-14.08 -25.72,-21.13 -45.43,-21.13 -21.55,0 -38.8,8.32 -51.73,24.96 -13,16.48 -19.44,39.99 -19.44,70.72l0 162.22 -64.03 0 0 -173.74c0,-27.92 -5.33,-48.95 -15.87,-63.02 -10.61,-14.08 -25.86,-21.13 -45.71,-21.13 -21.75,0 -39.07,8.25 -52.01,24.64 -12.79,16.24 -19.14,39.91 -19.14,71.04l0 162.22 -64.03 0 0 -319.66 61.02 0 0 40.65c10.2,-14.24 23,-25.13 38.32,-32.64 15.46,-7.68 32.57,-11.52 51.18,-11.52 20.59,0 38.86,4.46 54.73,13.44 15.87,8.95 28.33,22.24 37.49,39.68 11.29,-16.65 25.8,-29.61 43.52,-39.05 17.86,-9.35 37.48,-14.07 58.83,-14.07zm326.84 263.97c29.58,0 54.26,-11.59 74.16,-34.87l33.68 46.06c-11.9,17.3 -27.23,30.33 -45.98,39.06 -18.81,8.79 -39.97,13.12 -63.5,13.12 -30.09,0 -56.59,-6.9 -79.37,-20.81 -22.85,-14.07 -40.5,-33.6 -53.07,-58.55 -12.46,-24.96 -18.62,-53.21 -18.62,-84.8 0,-30.89 6.03,-58.89 18.06,-83.82 12.18,-24.97 29.01,-44.33 50.35,-58.25 21.35,-14.08 45.5,-21.11 72.54,-21.11 25.52,0 48.78,6.56 69.78,19.51 20.93,12.81 37.56,31.35 49.81,55.67 12.39,24.16 18.62,52.33 18.62,84.49l-209.37 47.99c6.36,18.39 16.69,32.31 30.92,41.9 14.38,9.6 31.75,14.4 52,14.4zm-11.76 -204.14c-23.53,0 -42.63,8.95 -57.21,26.87 -14.63,17.93 -21.88,42.08 -21.88,72.32l0 0.65 154.89 -34.57c-4.58,-19.59 -13.61,-35.35 -27.09,-47.35 -13.54,-11.92 -29.75,-17.92 -48.71,-17.92zm289.75 267.5c-28.46,0 -50.63,-9.05 -66.5,-27.2 -15.88,-18.09 -23.81,-43.68 -23.81,-76.79l0 -344.3 64.03 0 0 338.85c0,31.84 12.87,47.68 38.58,47.68 8.35,0 16.01,-1.92 22.98,-5.76l3.02 59.83c-11.9,5.13 -24.63,7.69 -38.31,7.69zm236.89 -327.34c34.48,0 62.13,11.75 82.92,35.19 20.94,23.52 31.48,58.41 31.48,104.64l0 183.34 -64.03 0 0 -173.74c0,-27.92 -5.67,-48.95 -16.98,-63.02 -11.35,-14.08 -27.36,-21.13 -48.18,-21.13 -23.53,0 -42.13,8.32 -55.83,24.96 -13.67,16.48 -20.52,40.23 -20.52,71.36l0 161.58 -64.03 0 0 -444.11 64.03 0 0 161.59c10.53,-13.2 23.6,-23.2 39.13,-30.08 15.66,-7.05 32.98,-10.55 52,-10.55zm320.97 327.34c-27.57,0 -52.48,-6.9 -74.72,-20.81 -22.1,-14.07 -39.4,-33.6 -51.99,-58.55 -12.46,-24.96 -18.6,-53.21 -18.6,-84.8 0,-31.35 6.14,-59.35 18.6,-84.14 12.59,-24.72 29.9,-44.01 51.99,-57.93 22.24,-14.08 47.15,-21.11 74.72,-21.11 28.05,0 53.17,7.03 75.26,21.11 22.24,13.92 39.55,33.21 52.01,57.93 12.58,24.79 18.87,52.79 18.87,84.14 0,31.59 -6.29,59.84 -18.87,84.8 -12.46,24.95 -29.77,44.48 -52.01,58.55 -22.09,13.91 -47.21,20.81 -75.26,20.81zm0 -64c23.67,0 43.25,-9.12 58.56,-27.53 15.34,-18.31 23,-42.56 23,-72.63 0,-29.83 -7.66,-53.91 -23,-72.31 -15.31,-18.32 -34.89,-27.52 -58.56,-27.52 -23.53,0 -42.89,9.2 -58.02,27.52 -15.2,18.4 -22.72,42.48 -22.72,72.31 0,30.07 7.52,54.33 22.72,72.63 15.13,18.4 34.48,27.53 58.02,27.53zm268.37 -213.12c18.41,-33.43 50.91,-50.23 97.44,-50.23l0 71.03c-5.47,-1.04 -10.53,-1.6 -15.04,-1.6 -24.85,0 -44.27,8.56 -58.28,25.61 -14.12,16.88 -21.09,41.18 -21.09,72.93l0 155.19 -64.03 0 0 -319.66 61.02 0 0 46.72zm279.16 213.75c29.55,0 54.26,-11.59 74.17,-34.87l33.66 46.06c-11.91,17.3 -27.23,30.33 -45.98,39.06 -18.81,8.79 -39.97,13.12 -63.5,13.12 -30.1,0 -56.56,-6.9 -79.35,-20.81 -22.87,-14.07 -40.51,-33.6 -53.1,-58.55 -12.45,-24.96 -18.63,-53.21 -18.63,-84.8 0,-30.89 6.04,-58.89 18.09,-83.82 12.18,-24.97 29.01,-44.33 50.36,-58.25 21.33,-14.08 45.49,-21.11 72.52,-21.11 25.52,0 48.78,6.56 69.78,19.51 20.93,12.81 37.55,31.35 49.81,55.67 12.39,24.16 18.62,52.33 18.62,84.49l-209.37 47.99c6.37,18.39 16.69,32.31 30.93,41.9 14.37,9.6 31.74,14.4 51.99,14.4zm-11.77 -204.14c-23.53,0 -42.63,8.95 -57.21,26.87 -14.63,17.93 -21.89,42.08 -21.89,72.32l0 0.65 154.91 -34.57c-4.59,-19.59 -13.62,-35.35 -27.1,-47.35 -13.55,-11.92 -29.75,-17.92 -48.71,-17.92zm284 267.5c-22.1,0 -43.72,-3.44 -64.86,-10.25 -21.22,-6.8 -38.18,-15.35 -50.9,-25.6l24.63 -56.94c12.18,9.59 26.9,17.27 44.06,23.03 17.32,5.77 34.35,8.65 51.18,8.65 38.33,0 57.49,-11.68 57.49,-35.21 0,-11.27 -4.93,-19.03 -14.79,-23.35 -9.7,-4.48 -25.3,-8.65 -46.79,-12.49 -22.44,-4 -40.78,-8.63 -55.01,-13.76 -14.23,-5.27 -26.54,-14.39 -36.94,-27.2 -10.41,-12.96 -15.6,-31.11 -15.6,-54.39 0,-30.24 10.81,-54.48 32.58,-72.63 21.68,-18.09 50.96,-27.2 87.83,-27.2 18.76,0 37.56,2.48 56.38,7.35 18.75,4.97 34.07,11.68 45.98,20.17l-24.63 56.62c-23.2,-15.75 -49.26,-23.67 -78.28,-23.67 -18.81,0 -33.12,3.35 -42.97,9.91 -9.72,6.41 -14.51,15.04 -14.51,25.92 0,12.01 5.2,20.48 15.61,25.59 10.54,4.96 26.68,9.53 48.43,13.76 21.89,4.07 39.83,8.8 53.91,14.08 14.03,5.12 26.07,13.91 36.13,26.25 9.99,12.39 15.05,29.91 15.05,52.45 0,30.08 -11.15,54.1 -33.38,72 -22.1,17.92 -52.27,26.89 -90.59,26.89zm665.53 -327.34c34.48,0 61.71,11.75 81.83,35.19 20.24,23.28 30.38,58.16 30.38,104.64l0 183.34 -64.05 0 0 -173.74c0,-27.92 -5.33,-48.95 -15.86,-63.02 -10.61,-14.08 -25.73,-21.13 -45.43,-21.13 -21.56,0 -38.8,8.32 -51.73,24.96 -13.01,16.48 -19.43,39.99 -19.43,70.72l0 162.22 -64.03 0 0 -173.74c0,-27.92 -5.34,-48.95 -15.88,-63.02 -10.6,-14.08 -25.86,-21.13 -45.7,-21.13 -21.76,0 -39.06,8.25 -51.99,24.64 -12.8,16.24 -19.15,39.91 -19.15,71.04l0 162.22 -64.06 0 0 -319.66 61.03 0 0 40.65c10.21,-14.24 22.99,-25.13 38.33,-32.64 15.46,-7.68 32.56,-11.52 51.18,-11.52 20.58,0 38.86,4.46 54.73,13.44 15.87,8.95 28.32,22.24 37.49,39.68 11.29,-16.65 25.8,-29.61 43.52,-39.05 17.85,-9.35 37.48,-14.07 58.84,-14.07zm319.45 327.34c-27.57,0 -52.49,-6.9 -74.72,-20.81 -22.1,-14.07 -39.42,-33.6 -52,-58.55 -12.45,-24.96 -18.62,-53.21 -18.62,-84.8 0,-31.35 6.17,-59.35 18.62,-84.14 12.58,-24.72 29.9,-44.01 52,-57.93 22.23,-14.08 47.15,-21.11 74.72,-21.11 28.04,0 53.15,7.03 75.25,21.11 22.24,13.92 39.54,33.21 52,57.93 12.6,24.79 18.89,52.79 18.89,84.14 0,31.59 -6.29,59.84 -18.89,84.8 -12.46,24.95 -29.76,44.48 -52,58.55 -22.1,13.91 -47.21,20.81 -75.25,20.81zm0 -64c23.67,0 43.23,-9.12 58.56,-27.53 15.33,-18.31 22.99,-42.56 22.99,-72.63 0,-29.83 -7.66,-53.91 -22.99,-72.31 -15.33,-18.32 -34.89,-27.52 -58.56,-27.52 -23.54,0 -42.91,9.2 -58.03,27.52 -15.19,18.4 -22.72,42.48 -22.72,72.31 0,30.07 7.53,54.33 22.72,72.63 15.11,18.4 34.48,27.53 58.03,27.53zm552.45 -263.34c34.48,0 61.72,11.75 81.83,35.19 20.25,23.28 30.38,58.16 30.38,104.64l0 183.34 -64.03 0 0 -173.74c0,-27.92 -5.34,-48.95 -15.87,-63.02 -10.61,-14.08 -25.73,-21.13 -45.43,-21.13 -21.56,0 -38.79,8.32 -51.73,24.96 -13,16.48 -19.43,39.99 -19.43,70.72l0 162.22 -64.04 0 0 -173.74c0,-27.92 -5.33,-48.95 -15.88,-63.02 -10.6,-14.08 -25.85,-21.13 -45.71,-21.13 -21.76,0 -39.05,8.25 -52,24.64 -12.78,16.24 -19.14,39.91 -19.14,71.04l0 162.22 -64.05 0 0 -319.66 61.03 0 0 40.65c10.21,-14.24 23,-25.13 38.33,-32.64 15.46,-7.68 32.57,-11.52 51.18,-11.52 20.59,0 38.86,4.46 54.73,13.44 15.88,8.95 28.33,22.24 37.51,39.68 11.27,-16.65 25.79,-29.61 43.51,-39.05 17.86,-9.35 37.48,-14.07 58.84,-14.07zm326.84 263.97c29.55,0 54.26,-11.59 74.16,-34.87l33.66 46.06c-11.91,17.3 -27.23,30.33 -45.97,39.06 -18.82,8.79 -39.96,13.12 -63.5,13.12 -30.1,0 -56.58,-6.9 -79.37,-20.81 -22.85,-14.07 -40.51,-33.6 -53.09,-58.55 -12.45,-24.96 -18.6,-53.21 -18.6,-84.8 0,-30.89 6.01,-58.89 18.06,-83.82 12.18,-24.97 29.01,-44.33 50.35,-58.25 21.34,-14.08 45.51,-21.11 72.53,-21.11 25.53,0 48.78,6.56 69.8,19.51 20.92,12.81 37.55,31.35 49.79,55.67 12.39,24.16 18.63,52.33 18.63,84.49l-209.37 47.99c6.36,18.39 16.69,32.31 30.93,41.9 14.37,9.6 31.74,14.4 52,14.4zm-11.78 -204.14c-23.53,0 -42.62,8.95 -57.2,26.87 -14.63,17.93 -21.9,42.08 -21.9,72.32l0 0.65 154.92 -34.57c-4.59,-19.59 -13.63,-35.35 -27.1,-47.35 -13.55,-11.92 -29.75,-17.92 -48.72,-17.92zm354.63 -59.84c34.48,0 62.11,11.75 82.92,35.19 20.93,23.52 31.48,58.41 31.48,104.64l0 183.34 -64.06 0 0 -173.74c0,-27.92 -5.67,-48.95 -16.96,-63.02 -11.36,-14.08 -27.36,-21.13 -48.17,-21.13 -23.52,0 -42.14,8.32 -55.83,24.96 -13.68,16.48 -20.52,40.23 -20.52,71.36l0 161.58 -64.04 0 0 -319.66 61.03 0 0 41.29c10.53,-14.72 23.87,-25.77 39.96,-33.28 16.01,-7.68 34.07,-11.52 54.19,-11.52zm349.33 305.89c-7.52,7.05 -16.63,12.4 -27.36,16 -10.83,3.59 -22.18,5.45 -34.22,5.45 -29.96,0 -53.09,-9.12 -69.53,-27.53 -16.42,-18.32 -24.63,-45.12 -24.63,-80.31l0 -286.71 64.05 0 0 72.96 73.08 0 0 59.84 -73.08 0 0 152.3c0,15.61 3.28,27.44 9.84,35.52 6.71,8.16 16.02,12.16 27.91,12.16 14.38,0 26.35,-4.32 35.87,-13.12l18.06 53.44zm166.18 21.45c-27.56,0 -52.47,-6.9 -74.71,-20.81 -22.1,-14.07 -39.41,-33.6 -52,-58.55 -12.46,-24.96 -18.62,-53.21 -18.62,-84.8 0,-31.35 6.16,-59.35 18.62,-84.14 12.59,-24.72 29.91,-44.01 52,-57.93 22.24,-14.08 47.15,-21.11 74.71,-21.11 28.05,0 53.16,7.03 75.27,21.11 22.24,13.92 39.54,33.21 51.99,57.93 12.6,24.79 18.89,52.79 18.89,84.14 0,31.59 -6.29,59.84 -18.89,84.8 -12.45,24.95 -29.75,44.48 -51.99,58.55 -22.1,13.91 -47.22,20.81 -75.27,20.81zm0 -64c23.68,0 43.25,-9.12 58.57,-27.53 15.33,-18.31 23,-42.56 23,-72.63 0,-29.83 -7.68,-53.91 -23,-72.31 -15.32,-18.32 -34.88,-27.52 -58.57,-27.52 -23.53,0 -42.9,9.2 -58.02,27.52 -15.19,18.4 -22.72,42.48 -22.72,72.31 0,30.07 7.53,54.33 22.72,72.63 15.12,18.4 34.48,27.53 58.02,27.53zm291.92 64c-22.1,0 -43.71,-3.44 -64.85,-10.25 -21.22,-6.8 -38.19,-15.35 -50.91,-25.6l24.63 -56.94c12.17,9.59 26.89,17.27 44.05,23.03 17.32,5.77 34.35,8.65 51.18,8.65 38.32,0 57.48,-11.68 57.48,-35.21 0,-11.27 -4.93,-19.03 -14.79,-23.35 -9.71,-4.48 -25.31,-8.65 -46.79,-12.49 -22.44,-4 -40.78,-8.63 -54.99,-13.76 -14.24,-5.27 -26.56,-14.39 -36.97,-27.2 -10.4,-12.96 -15.59,-31.11 -15.59,-54.39 0,-30.24 10.81,-54.48 32.57,-72.63 21.69,-18.09 50.96,-27.2 87.85,-27.2 18.75,0 37.55,2.48 56.37,7.35 18.76,4.97 34.08,11.68 45.98,20.17l-24.63 56.62c-23.19,-15.75 -49.27,-23.67 -78.27,-23.67 -18.81,0 -33.13,3.35 -42.98,9.91 -9.72,6.41 -14.51,15.04 -14.51,25.92 0,12.01 5.21,20.48 15.6,25.59 10.54,4.96 26.7,9.53 48.46,13.76 21.87,4.07 39.81,8.8 53.9,14.08 14.03,5.12 26.07,13.91 36.13,26.25 9.98,12.39 15.04,29.91 15.04,52.45 0,30.08 -11.15,54.1 -33.38,72 -22.11,17.92 -52.27,26.89 -90.59,26.89z"/>
  </g>
 </g>
</svg>